<?xml version="1.0" encoding="iso-8859-1"?>
<!-- Generator: Adobe Illustrator 19.0.0, SVG Export Plug-In . SVG Version: 6.00 Build 0)  -->
<svg version="1.1" id="Layer_1" xmlns="http://www.w3.org/2000/svg" xmlns:xlink="http://www.w3.org/1999/xlink" x="0px" y="0px"
	 viewBox="0 0 512 512" style="enable-background:new 0 0 512 512;" xml:space="preserve">
<path style="fill:#4BB6AA;" d="M110.861,346.466c-8.668,2.335-17.617-2.819-19.95-11.486L34.494,125.447
	c-2.333-8.667,2.819-17.616,11.486-19.95L424.14,3.68c8.665-2.333,17.615,2.82,19.948,11.486l56.416,209.532
	c2.335,8.667-2.819,17.616-11.484,19.95L110.861,346.466z"/>
<rect x="82.682" y="77.567" transform="matrix(-0.9656 0.26 -0.26 -0.9656 571.3143 274.5633)" style="fill:#0071CE;" width="369.631" height="195.001"/>
<g>
	<path style="fill:#FFFFFF;" d="M375.413,154.5c-3.742,0-7.167-2.494-8.186-6.281c-1.218-4.523,1.463-9.178,5.987-10.396l29.2-7.86
		c4.517-1.218,9.177,1.461,10.396,5.987c1.218,4.523-1.463,9.178-5.987,10.396l-29.198,7.86
		C376.886,154.405,376.144,154.5,375.413,154.5z"/>
	<path style="fill:#FFFFFF;" d="M130.378,220.476c-3.742,0-7.167-2.494-8.186-6.28c-1.218-4.524,1.463-9.179,5.986-10.397
		l29.2-7.861c4.526-1.217,9.179,1.461,10.397,5.986c1.218,4.524-1.463,9.179-5.986,10.397l-29.2,7.861
		C131.85,220.381,131.108,220.476,130.378,220.476z"/>
	<circle style="fill:#FFFFFF;" cx="267.495" cy="175.073" r="79.313"/>
	<path style="fill:#FFFFFF;" d="M63.689,128.976l18.705,69.475c38.368-10.33,61.101-49.812,50.771-88.181L63.689,128.976z"/>
	<path style="fill:#FFFFFF;" d="M420.612,32.875l18.705,69.476c-38.369,10.332-77.848-12.4-88.179-50.77L420.612,32.875z"/>
	<path style="fill:#FFFFFF;" d="M114.385,317.269L95.68,247.794c38.369-10.33,77.85,12.399,88.181,50.769L114.385,317.269z"/>
	<path style="fill:#FFFFFF;" d="M471.311,221.168l-18.705-69.474c-38.372,10.332-61.1,49.811-50.77,88.18L471.311,221.168z"/>
</g>
<path style="fill:#00A8E1;" d="M255.778,127.402c3.165-0.852,6.355,0.98,7.207,4.149l0.412,1.528
	c6.129-0.713,11.844-0.378,17.245,0.981c2.398,0.641,4.811,2.216,5.693,5.492c1.116,4.149-1.305,8.197-5.456,9.315
	c-1.311,0.354-2.708,0.378-4.084,0.045c-3.5-0.814-6.908-1.3-10.062-1.271l4.469,16.598c17.799,0.009,26.724,4.869,30.015,17.097
	c3.294,12.231-3.981,22.621-17.326,27.855l1.558,5.787c0.853,3.167-0.985,6.356-4.15,7.207c-3.169,0.853-6.355-0.982-7.209-4.149
	l-1.586-5.896c-8.018,1.104-16.071,0.346-23.571-1.853c-2.675-0.802-4.685-2.604-5.479-5.55c-1.147-4.26,1.278-8.309,5.538-9.456
	c1.421-0.382,3.096-0.245,4.642,0.275c5.38,1.713,10.307,2.611,15.624,2.352l-4.675-17.363
	c-16.874-0.025-26.243-3.944-29.741-16.941c-3.234-12.011,3.761-22.561,17.14-27.686l-0.353-1.31
	C250.774,131.441,252.609,128.255,255.778,127.402z M260.172,164.162l-3.969-14.741c-5.037,2.177-6.623,5.415-5.682,8.909
	C251.431,161.715,253.576,163.596,260.172,164.162z M275.583,180.509l4.086,15.178c4.924-2.145,6.9-5.254,5.84-9.185
	C284.54,182.899,282.037,180.998,275.583,180.509z"/>
<path style="fill:#333E48;" d="M512,209.157c0-21.774-17.815-39.589-39.589-39.589H39.589C17.815,169.568,0,187.383,0,209.157
	v260.136c0,21.774,17.815,39.589,39.589,39.589h432.823c21.774,0,39.589-17.815,39.589-39.589V209.157z"/>
<path style="opacity:0.2;enable-background:new    ;" d="M445.713,483.433h-16.92c-4.686,0-8.483-3.797-8.483-8.483
	c0-4.686,3.797-8.483,8.483-8.483h16.92c4.685,0,8.483,3.797,8.483,8.483C454.196,479.635,450.398,483.433,445.713,483.433z
	 M378.035,483.433h-16.919c-4.685,0-8.483-3.797-8.483-8.483c0-4.686,3.798-8.483,8.483-8.483h16.919
	c4.686,0,8.483,3.797,8.483,8.483C386.518,479.635,382.72,483.433,378.035,483.433z M310.359,483.433H293.44
	c-4.686,0-8.483-3.797-8.483-8.483c0-4.686,3.797-8.483,8.483-8.483h16.919c4.686,0,8.483,3.797,8.483,8.483
	C318.842,479.635,315.044,483.433,310.359,483.433z M242.682,483.433h-16.919c-4.686,0-8.483-3.797-8.483-8.483
	c0-4.686,3.797-8.483,8.483-8.483h16.919c4.686,0,8.483,3.797,8.483,8.483C251.166,479.635,247.367,483.433,242.682,483.433z
	 M175.005,483.433h-16.919c-4.686,0-8.483-3.797-8.483-8.483c0-4.686,3.797-8.483,8.483-8.483h16.919
	c4.686,0,8.483,3.797,8.483,8.483C183.488,479.635,179.69,483.433,175.005,483.433z M107.328,483.433H90.409
	c-4.686,0-8.483-3.797-8.483-8.483c0-4.686,3.797-8.483,8.483-8.483h16.919c4.686,0,8.483,3.797,8.483,8.483
	C115.812,479.635,112.013,483.433,107.328,483.433z M39.652,483.433h-0.063c-7.663,0-14.139-6.476-14.139-14.139v-8.079
	c0-4.686,3.797-8.483,8.483-8.483s8.483,3.797,8.483,8.483v5.734c3.305,1.163,5.686,4.307,5.686,8.001
	C48.103,479.635,44.337,483.433,39.652,483.433z M478.067,462.558c-4.686,0-8.483-3.797-8.483-8.483v-16.919
	c0-4.686,3.797-8.483,8.483-8.483s8.483,3.797,8.483,8.483v16.919C486.55,458.76,482.753,462.558,478.067,462.558z M33.933,418.938
	c-4.686,0-8.483-3.798-8.483-8.483v-16.919c0-4.686,3.797-8.483,8.483-8.483s8.483,3.797,8.483,8.483v16.919
	C42.417,415.141,38.619,418.938,33.933,418.938z M478.067,394.882c-4.686,0-8.483-3.797-8.483-8.483V369.48
	c0-4.686,3.797-8.483,8.483-8.483s8.483,3.797,8.483,8.483v16.919C486.55,391.084,482.753,394.882,478.067,394.882z M33.933,351.262
	c-4.686,0-8.483-3.797-8.483-8.483V325.86c0-4.686,3.797-8.483,8.483-8.483s8.483,3.797,8.483,8.483v16.919
	C42.417,347.465,38.619,351.262,33.933,351.262z M478.067,327.205c-4.686,0-8.483-3.797-8.483-8.483v-16.919
	c0-4.686,3.797-8.483,8.483-8.483s8.483,3.797,8.483,8.483v16.919C486.55,323.406,482.753,327.205,478.067,327.205z M33.933,283.586
	c-4.686,0-8.483-3.797-8.483-8.483v-16.919c0-4.686,3.797-8.483,8.483-8.483s8.483,3.797,8.483,8.483v16.919
	C42.417,279.789,38.619,283.586,33.933,283.586z M478.067,259.528c-4.686,0-8.483-3.797-8.483-8.483v-16.919
	c0-4.686,3.797-8.483,8.483-8.483s8.483,3.797,8.483,8.483v16.919C486.55,255.73,482.753,259.528,478.067,259.528z M34.218,215.942
	c-0.903,0-1.819-0.145-2.721-0.45c-4.438-1.502-6.817-6.318-5.314-10.756c1.938-5.722,7.451-9.718,13.407-9.718h9.812
	c4.685,0,8.483,3.797,8.483,8.483c0,4.686-3.798,8.483-8.483,8.483h-8.007C39.838,214.456,37.107,215.942,34.218,215.942z
	 M455.462,211.984h-16.919c-4.686,0-8.483-3.797-8.483-8.483c0-4.686,3.797-8.483,8.483-8.483h16.919
	c4.686,0,8.483,3.797,8.483,8.483C463.945,208.187,460.147,211.984,455.462,211.984z M387.784,211.984h-16.919
	c-4.686,0-8.483-3.797-8.483-8.483c0-4.686,3.797-8.483,8.483-8.483h16.919c4.686,0,8.483,3.797,8.483,8.483
	C396.267,208.187,392.469,211.984,387.784,211.984z M320.108,211.984h-16.919c-4.686,0-8.483-3.797-8.483-8.483
	c0-4.686,3.797-8.483,8.483-8.483h16.919c4.685,0,8.483,3.797,8.483,8.483C328.591,208.187,324.793,211.984,320.108,211.984z
	 M252.431,211.984h-16.919c-4.686,0-8.483-3.797-8.483-8.483c0-4.686,3.797-8.483,8.483-8.483h16.919
	c4.686,0,8.483,3.797,8.483,8.483C260.915,208.187,257.116,211.984,252.431,211.984z M184.754,211.984h-16.919
	c-4.686,0-8.483-3.797-8.483-8.483c0-4.686,3.797-8.483,8.483-8.483h16.919c4.686,0,8.483,3.797,8.483,8.483
	C193.237,208.187,189.439,211.984,184.754,211.984z M117.077,211.984h-16.919c-4.686,0-8.483-3.797-8.483-8.483
	c0-4.686,3.797-8.483,8.483-8.483h16.919c4.686,0,8.483,3.797,8.483,8.483C125.561,208.187,121.763,211.984,117.077,211.984z"/>
<rect x="328.394" y="377.677" style="fill:#FFFFFF;" width="101.8" height="46.375"/>
<g>
</g>
<g>
</g>
<g>
</g>
<g>
</g>
<g>
</g>
<g>
</g>
<g>
</g>
<g>
</g>
<g>
</g>
<g>
</g>
<g>
</g>
<g>
</g>
<g>
</g>
<g>
</g>
<g>
</g>
</svg>
